<svg xmlns="http://www.w3.org/2000/svg" viewBox="0 0 16 16">
  <path fill-rule="evenodd" d="M7.646 2.904a3.5 3.5 0 0 1 4.95 4.95l-.707-.708a2.5 2.5 0 0 0-3.535-3.535l-.708-.707zM4.111 9.268l.707.707a1.5 1.5 0 0 0 2.121 2.121l.707.707a2.5 2.5 0 1 1-3.535-3.535zm4.95-4.95a1.5 1.5 0 0 1 2.121 2.121l-.707-.707a.5.5 0 0 0-.707-.707l-.707-.707zM7.646 2.904l.708.707-6.01 6.01a.5.5 0 1 1-.708-.707l6.01-6.01zm4.243 4.242l.707.708-4.95 4.95-.707-.708 4.95-4.95zM9.061 4.318l.707.707-4.95 4.95-.707-.707 4.95-4.95zm1.414 1.414l.707.707-4.95 4.95a.5.5 0 1 1-.707-.707l4.95-4.95z"/>
</svg>
