<svg xmlns="http://www.w3.org/2000/svg" viewBox="0 0 16 16">
  <path d="M10.475 7.146L6.232 11.39a.5.5 0 0 1-.707-.707l4.243-4.243.177.177-.177-.177a.5.5 0 1 0-.707-.707l-.177-.177.177.177-4.243 4.243-.707-.707 4.243-4.243a1.5 1.5 0 1 1 2.12 2.121zM7.646 2.904a3.5 3.5 0 0 1 4.95 4.95l-.707-.708a2.5 2.5 0 0 0-3.535-3.535l-.708-.707zM4.111 9.268l.707.707a1.5 1.5 0 0 0 2.121 2.121l.707.707a2.5 2.5 0 0 1-3.535-3.535zm3.535-6.364l.708.707-4.95 4.95a.5.5 0 1 1-.707-.707l4.95-4.95zm4.243 4.242l.707.708-4.95 4.95-.707-.708 4.95-4.95z"/>
</svg>
