<svg xmlns="http://www.w3.org/2000/svg" viewBox="0 0 16 16">
  <path fill-rule="evenodd" d="M11.686 13.545c-2.19 1.264-5.4-.198-7.171-3.266-1.771-3.067-1.432-6.58.757-7.843l.596-.344a.687.687 0 0 1 .938.252l1.49 2.579a.687.687 0 0 1-.252.938l-.397.23a1.146 1.146 0 0 1-1.253-.07l-.083.047.002.003a1.123 1.123 0 0 0-.08.043c-.834.48-.893 1.936-.134 3.251s2.05 1.99 2.882 1.51c.027-.015.052-.032.077-.049l.002.003.083-.047c-.05-.439.159-.886.566-1.12l.396-.23a.687.687 0 0 1 .94.252l1.488 2.579a.687.687 0 0 1-.251.939l-.596.343z"/>
</svg>
