<svg xmlns="http://www.w3.org/2000/svg" viewBox="0 0 16 16">
  <path fill-rule="evenodd" d="M9.5 2.707c.416.118.812.283 1.182.49l1.207-1.207 2.121 2.12-1.207 1.208c.207.37.372.766.49 1.182H15v3h-1.707a5.466 5.466 0 0 1-.49 1.182l1.207 1.207-2.12 2.121-1.208-1.207c-.37.207-.766.372-1.182.49V15h-3v-1.707a5.466 5.466 0 0 1-1.182-.49L4.111 14.01 1.99 11.89l1.207-1.208a5.466 5.466 0 0 1-.49-1.182H1v-3h1.707c.118-.416.283-.812.49-1.182L1.99 4.111 4.11 1.99l1.208 1.207c.37-.207.766-.372 1.182-.49V1h3v1.707zM8 10.5a2.5 2.5 0 1 0 0-5 2.5 2.5 0 0 0 0 5z"/>
</svg>
