<svg xmlns="http://www.w3.org/2000/svg" xmlns:xlink="http://www.w3.org/1999/xlink" viewBox="0 0 133 32">
  <defs>
    <path id="logo-with-title-a" d="M24.8 16l2.942 1.471v7.704L16.03 31.031 4.32 25.175v-7.704L7.262 16 4.32 14.529V6.825L16.03.969l11.712 5.856v7.704L24.799 16zm-8.77-4.384l5.073-2.536-5.072-2.536-5.072 2.536 5.072 2.536zm0 13.84l5.073-2.536-5.072-2.536-5.072 2.536 5.072 2.536zM8.579 22.92l3.194-1.597-6.388-3.194v6.388l10.647 5.323 10.646-5.323V18.13L8.578 9.08l7.453-3.725 7.452 3.726-3.194 1.597 6.388 3.194V7.483L16.031 2.16 5.384 7.483v6.388l18.1 9.05-7.453 3.725-7.453-3.726z"/>
  </defs>
  <g fill="none" fill-rule="evenodd">
    <mask id="logo-with-title-b" fill="#fff">
      <use xlink:href="#logo-with-title-a"/>
    </mask>
    <use fill="#FFF" fill-rule="nonzero" xlink:href="#logo-with-title-a"/>
    <g fill="#FF9F40" mask="url(#logo-with-title-b)">
      <path d="M0 0h32v32H0z"/>
    </g>
    <path fill="#FFF" d="M48.696 12.76c-.032-.736-.188-1.376-.468-1.92s-.66-1-1.14-1.368a4.966 4.966 0 0 0-1.716-.828 8.113 8.113 0 0 0-2.172-.276c-.48 0-.996.056-1.548.168a4.895 4.895 0 0 0-1.536.588c-.472.28-.86.656-1.164 1.128-.304.472-.456 1.06-.456 1.764 0 .688.168 1.248.504 1.68.336.432.776.78 1.32 1.044a8.7 8.7 0 0 0 1.872.636c.704.16 1.416.312 2.136.456a25.51 25.51 0 0 1 2.148.516c.696.2 1.32.472 1.872.816s.996.792 1.332 1.344c.336.552.504 1.244.504 2.076 0 .896-.192 1.648-.576 2.256a4.865 4.865 0 0 1-1.452 1.488 6.025 6.025 0 0 1-1.944.828 8.932 8.932 0 0 1-2.052.252c-1.008 0-1.952-.108-2.832-.324-.88-.216-1.648-.568-2.304-1.056a5.102 5.102 0 0 1-1.548-1.884c-.376-.768-.556-1.704-.54-2.808h1.056c-.048.944.088 1.74.408 2.388.32.648.764 1.18 1.332 1.596.568.416 1.236.716 2.004.9.768.184 1.576.276 2.424.276.512 0 1.06-.064 1.644-.192a5.068 5.068 0 0 0 1.608-.648 3.978 3.978 0 0 0 1.224-1.2c.328-.496.492-1.12.492-1.872 0-.72-.168-1.308-.504-1.764a3.7 3.7 0 0 0-1.332-1.104 8.576 8.576 0 0 0-1.872-.672 50.397 50.397 0 0 0-2.148-.468 31.87 31.87 0 0 1-2.136-.504 7.354 7.354 0 0 1-1.872-.78 4.017 4.017 0 0 1-1.32-1.272c-.336-.52-.504-1.188-.504-2.004 0-.816.172-1.516.516-2.1A4.221 4.221 0 0 1 39.3 8.5a5.966 5.966 0 0 1 1.86-.792 8.577 8.577 0 0 1 2.04-.252c.896 0 1.732.1 2.508.3.776.2 1.456.512 2.04.936a4.68 4.68 0 0 1 1.404 1.644c.352.672.552 1.48.6 2.424h-1.056zm6.936-4.896h11.52v.912H56.688v6.864h9.84v.912h-9.84v7.536h10.584V25h-11.64V7.864zm15.816 8.664c0-1.216.18-2.372.54-3.468a8.793 8.793 0 0 1 1.572-2.892 7.522 7.522 0 0 1 2.532-1.98c1-.488 2.148-.732 3.444-.732.88 0 1.72.128 2.52.384s1.516.632 2.148 1.128a6.76 6.76 0 0 1 1.596 1.8c.432.704.72 1.504.864 2.4h-1.008c-.4-1.504-1.12-2.68-2.16-3.528-1.04-.848-2.352-1.272-3.936-1.272-1.152 0-2.168.224-3.048.672a6.556 6.556 0 0 0-2.208 1.8 7.965 7.965 0 0 0-1.344 2.604 10.388 10.388 0 0 0-.456 3.084c0 1.088.148 2.116.444 3.084.296.968.736 1.812 1.32 2.532a6.308 6.308 0 0 0 2.196 1.716c.88.424 1.912.636 3.096.636 1.024 0 1.944-.168 2.76-.504a5.843 5.843 0 0 0 2.076-1.416 5.945 5.945 0 0 0 1.284-2.196c.288-.856.408-1.812.36-2.868h-6.312V16.6h7.224V25h-.912v-3.648h-.048a5.236 5.236 0 0 1-.936 1.692 5.782 5.782 0 0 1-1.476 1.272c-.568.344-1.2.612-1.896.804a8.13 8.13 0 0 1-2.172.288c-1.296 0-2.444-.232-3.444-.696a7.4 7.4 0 0 1-2.532-1.896c-.688-.8-1.208-1.74-1.56-2.82a11.125 11.125 0 0 1-.528-3.468zm21.408-8.664h1.32L105 23.584h.048V7.864h1.056V25h-1.248L93.96 9.16h-.048V25h-1.056V7.864zm34.8 8.568c0 1.248-.184 2.42-.552 3.516-.368 1.096-.9 2.048-1.596 2.856a7.421 7.421 0 0 1-2.556 1.908c-1.008.464-2.152.696-3.432.696-1.28 0-2.428-.232-3.444-.696a7.392 7.392 0 0 1-2.568-1.908c-.696-.808-1.228-1.76-1.596-2.856a10.975 10.975 0 0 1-.552-3.516c0-1.248.184-2.42.552-3.516.368-1.096.9-2.048 1.596-2.856a7.392 7.392 0 0 1 2.568-1.908c1.016-.464 2.164-.696 3.444-.696 1.28 0 2.424.232 3.432.696a7.421 7.421 0 0 1 2.556 1.908c.696.808 1.228 1.76 1.596 2.856.368 1.096.552 2.268.552 3.516zm-15.24 0c0 1.104.16 2.144.48 3.12.32.976.784 1.828 1.392 2.556a6.738 6.738 0 0 0 2.232 1.74c.88.432 1.88.648 3 .648s2.116-.216 2.988-.648a6.774 6.774 0 0 0 2.22-1.74 7.666 7.666 0 0 0 1.392-2.556c.32-.976.48-2.016.48-3.12s-.16-2.144-.48-3.12a7.666 7.666 0 0 0-1.392-2.556 6.774 6.774 0 0 0-2.22-1.74c-.872-.432-1.868-.648-2.988-.648-1.12 0-2.12.216-3 .648a6.738 6.738 0 0 0-2.232 1.74 7.666 7.666 0 0 0-1.392 2.556 9.953 9.953 0 0 0-.48 3.12z"/>
  </g>
</svg>
